<svg xmlns="http://www.w3.org/2000/svg" viewBox="0 0 128 128">
  <defs><linearGradient id="r" x1="0" y1="0" x2="1" y2="1"><stop stop-color="#ff3540"/><stop offset="1" stop-color="#a80009"/></linearGradient></defs>
  <rect width="128" height="128" rx="25" fill="#080a0c"/>
  <path d="M64 8 76 17l15-2 7 14 15 5-1 15 10 12-8 13 3 15-15 6-5 15-16-1-12 11-12-11-16 1-5-15-15-6 3-15-8-13 10-12-1-15 15-5 7-14 15 2z" fill="none" stroke="#bfc4c8" stroke-width="7"/>
  <path d="M29 74c17-12 31-15 48-12 8 1 15 4 23 8l-7-15c-2-5-7-8-13-8H50c-7 0-12 4-15 10z" fill="none" stroke="url(#r)" stroke-width="7" stroke-linecap="round"/>
  <path d="m62 29-9 26h14l-8 27 26-37H71l9-16z" fill="url(#r)"/>
</svg>
